<svg width="152" height="49" viewBox="0 0 152 49" fill="none" xmlns="http://www.w3.org/2000/svg">
<g clip-path="url(#clip0_377_934)">
<path d="M21.9248 25.9887H15.5456L12.6113 28.8544C12.6113 28.8544 12.2068 29.2126 11.8926 29.5476L11.3137 30.0721L1.54952 39.9679C1.24196 40.2801 0.977221 40.8254 0.455531 40.6357C-0.0661582 40.4461 0.112929 39.8454 0.112929 39.4146C0.112929 36.4546 0.112929 33.4866 0.08957 30.5266C0.0695953 30.102 0.14032 29.678 0.296894 29.2837C0.453468 28.8894 0.692189 28.5342 0.996687 28.2423C5.31295 23.911 9.60197 19.5625 13.8637 15.1968C14.693 14.3551 14.8682 14.3788 15.5456 15.3826C16.6123 16.9634 17.6985 18.5086 18.7224 20.125C19.2247 20.9154 19.5867 20.9154 20.2447 20.2475C23.8809 16.4812 27.5639 12.7703 31.2196 9.05151C32.664 7.58533 34.1162 6.131 35.5528 4.65691C36.0939 4.10758 36.5611 4.05226 37.1101 4.68062C39.8859 7.90939 41.2407 11.6124 40.8358 15.928C40.3297 21.3817 36.3044 24.1771 35.8209 24.3584C35.6231 24.4326 33.3135 25.9887 28.0143 25.9887C26.0366 25.965 23.9064 25.9887 21.9248 25.9887Z" fill="white"/>
<path d="M14.2025 -9.01669e-05C17.8699 -9.01669e-05 21.5373 0.0433816 25.2008 -9.01669e-05C27.6421 -0.0773025 30.0703 0.390844 32.3137 1.37125C33.1546 1.74669 33.2714 2.04704 32.6252 2.71097C29.604 5.79878 26.579 8.87606 23.5501 11.9428C22.5223 12.9901 21.4634 14.0057 20.4589 15.0807C19.9372 15.6379 19.6102 15.4759 19.2403 14.9424C18.0724 13.243 16.8694 11.5674 15.7364 9.8522C15.2926 9.18827 14.9928 9.12899 14.4089 9.72969C10.0303 14.2086 5.63488 18.6783 1.22258 23.1388C1.02402 23.3403 0.856617 23.6644 0.517908 23.5735C0.179199 23.4826 0.257063 23.0913 0.179199 22.8226C0.179199 21.7899 0.229811 20.8466 0.225918 19.8744C0.186986 13.7844 0.198665 7.69047 0.198665 1.60046C0.198665 0.142181 0.319355 0.0196697 1.75595 0.0196697C5.90091 0.00649647 10.0498 -9.01669e-05 14.2025 -9.01669e-05Z" fill="#25AF73"/>
</g>
<path d="M42.0739 17.7814H56.9811V22.9912H48.0574V26.5848H56.9467V31.6226H48.0574V35.2677H56.9811V40.4775H42.0739V17.7814ZM65.0825 23.2319L65.5295 23.3179V40.4775H59.546V17.7814H67.6616L75.8631 34.9067L75.4333 34.9926V17.7814H81.3996V40.4775H73.2496L65.0825 23.2319ZM84.1415 17.7814H90.125V40.4775H84.1415V17.7814ZM85.6374 16.8186L83.9008 14.4458L89.6436 9.42512L92.429 12.9499L85.6374 16.8186ZM93.0542 17.7814H112.535L101.858 35.2677H111.796V40.4775H91.4552L102.098 22.9912H93.0542V17.7814ZM113.876 17.7814H128.784V22.9912H119.86V26.5848H128.749V31.6226H119.86V35.2677H128.784V40.4775H113.876V17.7814Z" fill="white"/>
<path d="M142.026 28.648L150.382 40.4775H143.264L136.851 30.7629V40.4775H130.867V17.7814H136.851V26.6535L142.697 17.7814H149.437L142.026 28.648Z" fill="#25AF73"/>
<defs>
<clipPath id="clip0_377_934">
<rect width="41.5522" height="40.8358" fill="white"/>
</clipPath>
</defs>
</svg>
